<?xml version="1.0" ?><svg xmlns="http://www.w3.org/2000/svg" xmlns:xlink="http://www.w3.org/1999/xlink" version="1.1" id="Layer_1" viewBox="0 0 1000 1000" style="enable-background:new 0 0 1000 1000;" xml:space="preserve"><style type="text/css">

</style><g><path class="st0" d="M500.15,209.12c1.63,0,3.09,0.81,3.58,2.28l85.62,198.1l216.65,19.37c1.46,0.16,2.77,1.14,3.26,2.44   c0.33,1.14,0,2.28-0.98,3.09L644.37,576.5l48.34,210.47c0.33,1.3-0.16,2.44-1.3,3.26c-0.81,0.65-1.79,0.81-2.44,0.81   c-0.81,0-1.46-0.16-2.12-0.49l-186.7-110.36l-186.54,110.2c-0.65,0.49-1.46,0.65-2.28,0.65c-0.81,0-1.63-0.16-2.44-0.81   c-1.14-0.81-1.63-1.95-1.3-3.26l48.51-210.47L192.02,434.4c-0.98-0.81-1.3-2.12-0.98-3.09c0.49-1.3,1.79-2.28,3.26-2.44   l216.49-19.37l85.62-198.1C497.06,209.93,498.52,209.12,500.15,209.12 M500.15,170.05c-17.09,0-32.72,10.09-39.39,25.72   l-76.5,176.77L190.71,389.8c-17.09,1.63-31.58,13.02-36.95,29.14c-5.37,16.11-0.33,33.86,12.53,44.93L312.47,590.5l-43.14,187.52   c-3.74,16.6,2.77,33.69,16.6,43.79c7.32,5.21,16.11,8.14,25.07,8.14c7.65,0,15.3-2.12,21.97-6.02l167.17-98.48L667,823.92   c6.84,4.07,14.49,6.02,21.97,6.02c8.79,0,17.58-2.77,25.07-8.14c14-9.93,20.51-27.18,16.6-43.79L687.51,590.5l146.17-126.64   c13.02-11.23,17.91-28.81,12.53-44.93s-19.86-27.67-36.95-29.14l-193.38-17.42l-76.34-176.77   C532.71,180.15,517.24,170.05,500.15,170.05L500.15,170.05z"/></g></svg>